<svg width="585" height="367" viewBox="0 0 585 367" fill="none" xmlns="http://www.w3.org/2000/svg">
<g filter="url(#filter0_df_2_8)">
<path d="M109.956 66.2828C49.914 122.36 17.4719 159.146 13.1139 193.69C8.7558 228.233 -22.8722 338.381 94.4617 347.565C211.796 356.749 496.358 363.267 534.281 267.026C572.204 170.786 611.6 105.101 534.281 39.8145C484.779 -1.98351 444.063 27.9138 330.428 10.4177C301.752 6.00259 220.357 0.336231 109.956 66.2828Z" fill="#EEE0B1"/>
</g>
<g filter="url(#filter1_f_2_8)">
<path d="M312.291 4C142.157 59.8545 273.149 101.373 273.149 164.638C273.149 258.765 362.222 291.252 428.796 258.765C495.37 226.278 549.616 174.983 563.794 102.6C577.972 30.2174 463.316 4 419.55 4H312.291Z" fill="#FFFCCF"/>
</g>
<defs>
<filter id="filter0_df_2_8" x="0" y="4" width="584.694" height="362.456" filterUnits="userSpaceOnUse" color-interpolation-filters="sRGB">
<feFlood flood-opacity="0" result="BackgroundImageFix"/>
<feColorMatrix in="SourceAlpha" type="matrix" values="0 0 0 0 0 0 0 0 0 0 0 0 0 0 0 0 0 0 127 0" result="hardAlpha"/>
<feOffset dy="8"/>
<feGaussianBlur stdDeviation="3"/>
<feComposite in2="hardAlpha" operator="out"/>
<feColorMatrix type="matrix" values="0 0 0 0 0 0 0 0 0 0 0 0 0 0 0 0 0 0 0.25 0"/>
<feBlend mode="normal" in2="BackgroundImageFix" result="effect1_dropShadow_2_8"/>
<feBlend mode="normal" in="SourceGraphic" in2="effect1_dropShadow_2_8" result="shape"/>
<feGaussianBlur stdDeviation="2" result="effect2_foregroundBlur_2_8"/>
</filter>
<filter id="filter1_f_2_8" x="221" y="0" width="348" height="275" filterUnits="userSpaceOnUse" color-interpolation-filters="sRGB">
<feFlood flood-opacity="0" result="BackgroundImageFix"/>
<feBlend mode="normal" in="SourceGraphic" in2="BackgroundImageFix" result="shape"/>
<feGaussianBlur stdDeviation="2" result="effect1_foregroundBlur_2_8"/>
</filter>
</defs>
</svg>
